<svg width="56" height="31" viewBox="0 0 56 31" fill="none" xmlns="http://www.w3.org/2000/svg">
<path d="M10.316 28V18.2H14.348C15.216 18.2 15.958 18.34 16.574 18.62C17.1993 18.9 17.68 19.3013 18.016 19.824C18.352 20.3467 18.52 20.9673 18.52 21.686C18.52 22.4047 18.352 23.0253 18.016 23.548C17.68 24.0707 17.1993 24.472 16.574 24.752C15.958 25.032 15.216 25.172 14.348 25.172H11.324L12.136 24.318V28H10.316ZM12.136 24.514L11.324 23.632H14.264C15.0667 23.632 15.6687 23.464 16.07 23.128C16.4807 22.7827 16.686 22.302 16.686 21.686C16.686 21.0607 16.4807 20.58 16.07 20.244C15.6687 19.908 15.0667 19.74 14.264 19.74H11.324L12.136 18.844V24.514ZM20.3062 28V17.612H22.0562V28H20.3062ZM28.9591 28V26.488L28.8611 26.166V23.52C28.8611 23.0067 28.7071 22.61 28.3991 22.33C28.0911 22.0407 27.6244 21.896 26.9991 21.896C26.5791 21.896 26.1637 21.9613 25.7531 22.092C25.3517 22.2227 25.0111 22.4047 24.7311 22.638L24.0451 21.364C24.4464 21.056 24.9224 20.8273 25.4731 20.678C26.0331 20.5193 26.6117 20.44 27.2091 20.44C28.2917 20.44 29.1271 20.7013 29.7151 21.224C30.3124 21.7373 30.6111 22.5353 30.6111 23.618V28H28.9591ZM26.6071 28.098C26.0471 28.098 25.5571 28.0047 25.1371 27.818C24.7171 27.622 24.3904 27.356 24.1571 27.02C23.9331 26.6747 23.8211 26.2873 23.8211 25.858C23.8211 25.438 23.9191 25.06 24.1151 24.724C24.3204 24.388 24.6517 24.122 25.1091 23.926C25.5664 23.73 26.1731 23.632 26.9291 23.632H29.0991V24.794H27.0551C26.4577 24.794 26.0564 24.892 25.8511 25.088C25.6457 25.2747 25.5431 25.508 25.5431 25.788C25.5431 26.1053 25.6691 26.3573 25.9211 26.544C26.1731 26.7307 26.5231 26.824 26.9711 26.824C27.4004 26.824 27.7831 26.726 28.1191 26.53C28.4644 26.334 28.7117 26.0447 28.8611 25.662L29.1551 26.712C28.9871 27.1507 28.6837 27.4913 28.2451 27.734C27.8157 27.9767 27.2697 28.098 26.6071 28.098ZM37.099 20.44C37.6963 20.44 38.2283 20.5567 38.695 20.79C39.171 21.0233 39.5443 21.3827 39.815 21.868C40.0857 22.344 40.221 22.96 40.221 23.716V28H38.471V23.94C38.471 23.2773 38.3123 22.7827 37.995 22.456C37.687 22.1293 37.253 21.966 36.693 21.966C36.2823 21.966 35.9183 22.05 35.601 22.218C35.2837 22.386 35.0363 22.638 34.859 22.974C34.691 23.3007 34.607 23.716 34.607 24.22V28H32.857V20.524H34.523V22.54L34.229 21.924C34.4903 21.448 34.8683 21.084 35.363 20.832C35.867 20.5707 36.4457 20.44 37.099 20.44ZM45.9686 28.098C45.138 28.098 44.41 27.9347 43.7846 27.608C43.1686 27.272 42.688 26.8147 42.3426 26.236C42.0066 25.6573 41.8386 24.9993 41.8386 24.262C41.8386 23.5153 42.002 22.8573 42.3286 22.288C42.6646 21.7093 43.122 21.2567 43.7006 20.93C44.2886 20.6033 44.956 20.44 45.7026 20.44C46.4306 20.44 47.0793 20.5987 47.6486 20.916C48.218 21.2333 48.666 21.6813 48.9926 22.26C49.3193 22.8387 49.4826 23.52 49.4826 24.304C49.4826 24.3787 49.478 24.4627 49.4686 24.556C49.4686 24.6493 49.464 24.738 49.4546 24.822H43.2246V23.66H48.5306L47.8446 24.024C47.854 23.5947 47.7653 23.2167 47.5786 22.89C47.392 22.5633 47.1353 22.3067 46.8086 22.12C46.4913 21.9333 46.1226 21.84 45.7026 21.84C45.2733 21.84 44.8953 21.9333 44.5686 22.12C44.2513 22.3067 43.9993 22.568 43.8126 22.904C43.6353 23.2307 43.5466 23.618 43.5466 24.066V24.346C43.5466 24.794 43.6493 25.1907 43.8546 25.536C44.06 25.8813 44.3493 26.1473 44.7226 26.334C45.096 26.5207 45.5253 26.614 46.0106 26.614C46.4306 26.614 46.8086 26.5487 47.1446 26.418C47.4806 26.2873 47.7793 26.082 48.0406 25.802L48.9786 26.88C48.6426 27.272 48.218 27.5753 47.7046 27.79C47.2006 27.9953 46.622 28.098 45.9686 28.098ZM53.9776 28.098C53.1563 28.098 52.5216 27.888 52.0736 27.468C51.6256 27.0387 51.4016 26.4087 51.4016 25.578V18.872H53.1516V25.536C53.1516 25.8907 53.2403 26.166 53.4176 26.362C53.6043 26.558 53.861 26.656 54.1876 26.656C54.5796 26.656 54.9063 26.5533 55.1676 26.348L55.6576 27.594C55.4523 27.762 55.2003 27.888 54.9016 27.972C54.603 28.056 54.295 28.098 53.9776 28.098ZM50.1696 21.98V20.58H55.1536V21.98H50.1696Z" fill="black"/>
<path d="M4.724 14V10.122L5.13 11.242L0.874 4.2H2.82L6.236 9.87H5.144L8.588 4.2H10.38L6.124 11.242L6.544 10.122V14H4.724ZM13.9299 14.098C13.1645 14.098 12.4832 13.9347 11.8859 13.608C11.2885 13.272 10.8172 12.8147 10.4719 12.236C10.1265 11.6573 9.95388 10.9993 9.95388 10.262C9.95388 9.51533 10.1265 8.85733 10.4719 8.288C10.8172 7.70933 11.2885 7.25667 11.8859 6.93C12.4832 6.60333 13.1645 6.44 13.9299 6.44C14.7045 6.44 15.3905 6.60333 15.9879 6.93C16.5945 7.25667 17.0659 7.70467 17.4019 8.274C17.7472 8.84333 17.9199 9.506 17.9199 10.262C17.9199 10.9993 17.7472 11.6573 17.4019 12.236C17.0659 12.8147 16.5945 13.272 15.9879 13.608C15.3905 13.9347 14.7045 14.098 13.9299 14.098ZM13.9299 12.6C14.3592 12.6 14.7419 12.5067 15.0779 12.32C15.4139 12.1333 15.6752 11.8627 15.8619 11.508C16.0579 11.1533 16.1559 10.738 16.1559 10.262C16.1559 9.77667 16.0579 9.36133 15.8619 9.016C15.6752 8.66133 15.4139 8.39067 15.0779 8.204C14.7419 8.01733 14.3639 7.924 13.9439 7.924C13.5145 7.924 13.1319 8.01733 12.7959 8.204C12.4692 8.39067 12.2079 8.66133 12.0119 9.016C11.8159 9.36133 11.7179 9.77667 11.7179 10.262C11.7179 10.738 11.8159 11.1533 12.0119 11.508C12.2079 11.8627 12.4692 12.1333 12.7959 12.32C13.1319 12.5067 13.5099 12.6 13.9299 12.6ZM22.9813 16.814C22.2906 16.814 21.614 16.7207 20.9513 16.534C20.298 16.3567 19.7613 16.0953 19.3413 15.75L20.1253 14.434C20.452 14.7047 20.8626 14.9193 21.3573 15.078C21.8613 15.246 22.37 15.33 22.8833 15.33C23.7046 15.33 24.3066 15.1387 24.6893 14.756C25.072 14.3827 25.2633 13.818 25.2633 13.062V11.732L25.4033 10.038L25.3473 8.344V6.524H27.0133V12.866C27.0133 14.2193 26.668 15.2133 25.9773 15.848C25.2866 16.492 24.288 16.814 22.9813 16.814ZM22.7573 13.664C22.048 13.664 21.404 13.5147 20.8253 13.216C20.256 12.908 19.8033 12.4833 19.4673 11.942C19.1406 11.4007 18.9773 10.766 18.9773 10.038C18.9773 9.31933 19.1406 8.68933 19.4673 8.148C19.8033 7.60667 20.256 7.18667 20.8253 6.888C21.404 6.58933 22.048 6.44 22.7573 6.44C23.392 6.44 23.9613 6.566 24.4653 6.818C24.9693 7.07 25.3706 7.462 25.6693 7.994C25.9773 8.526 26.1313 9.20733 26.1313 10.038C26.1313 10.8687 25.9773 11.5547 25.6693 12.096C25.3706 12.628 24.9693 13.0247 24.4653 13.286C23.9613 13.538 23.392 13.664 22.7573 13.664ZM23.0233 12.18C23.462 12.18 23.854 12.0913 24.1993 11.914C24.5446 11.7273 24.8106 11.4753 24.9973 11.158C25.1933 10.8313 25.2913 10.458 25.2913 10.038C25.2913 9.618 25.1933 9.24933 24.9973 8.932C24.8106 8.60533 24.5446 8.358 24.1993 8.19C23.854 8.01267 23.462 7.924 23.0233 7.924C22.5846 7.924 22.188 8.01267 21.8333 8.19C21.488 8.358 21.2173 8.60533 21.0213 8.932C20.8346 9.24933 20.7413 9.618 20.7413 10.038C20.7413 10.458 20.8346 10.8313 21.0213 11.158C21.2173 11.4753 21.488 11.7273 21.8333 11.914C22.188 12.0913 22.5846 12.18 23.0233 12.18ZM33.92 14V12.488L33.822 12.166V9.52C33.822 9.00667 33.668 8.61 33.36 8.33C33.052 8.04067 32.5853 7.896 31.96 7.896C31.54 7.896 31.1247 7.96133 30.714 8.092C30.3127 8.22267 29.972 8.40467 29.692 8.638L29.006 7.364C29.4073 7.056 29.8833 6.82733 30.434 6.678C30.994 6.51933 31.5727 6.44 32.17 6.44C33.2527 6.44 34.088 6.70133 34.676 7.224C35.2733 7.73733 35.572 8.53533 35.572 9.618V14H33.92ZM31.568 14.098C31.008 14.098 30.518 14.0047 30.098 13.818C29.678 13.622 29.3513 13.356 29.118 13.02C28.894 12.6747 28.782 12.2873 28.782 11.858C28.782 11.438 28.88 11.06 29.076 10.724C29.2813 10.388 29.6127 10.122 30.07 9.926C30.5273 9.73 31.134 9.632 31.89 9.632H34.06V10.794H32.016C31.4187 10.794 31.0173 10.892 30.812 11.088C30.6067 11.2747 30.504 11.508 30.504 11.788C30.504 12.1053 30.63 12.3573 30.882 12.544C31.134 12.7307 31.484 12.824 31.932 12.824C32.3613 12.824 32.744 12.726 33.08 12.53C33.4253 12.334 33.6727 12.0447 33.822 11.662L34.116 12.712C33.948 13.1507 33.6447 13.4913 33.206 13.734C32.7767 13.9767 32.2307 14.098 31.568 14.098Z" fill="black"/>
</svg>
